G75*
%MOIN*%
%OFA0B0*%
%FSLAX24Y24*%
%IPPOS*%
%LPD*%
%AMOC8*
5,1,8,0,0,1.08239X$1,22.5*
%
%ADD10R,0.0580X0.0300*%
%ADD11R,0.0552X0.0395*%
%ADD12R,0.0395X0.0552*%
%ADD13R,0.0178X0.0780*%
%ADD14R,0.0300X0.0580*%
%ADD15R,0.0674X0.0674*%
%ADD16C,0.1780*%
%ADD17R,0.0552X0.0316*%
%ADD18R,0.3426X0.3860*%
%ADD19R,0.0474X0.1419*%
%ADD20R,0.0513X0.0474*%
%ADD21R,0.0789X0.0710*%
%ADD22R,0.0710X0.0789*%
%ADD23R,0.1241X0.1812*%
%ADD24R,0.0474X0.0513*%
%ADD25C,0.0820*%
%ADD26R,0.0277X0.0356*%
%ADD27R,0.0395X0.0434*%
%ADD28C,0.1380*%
D10*
X016120Y025220D03*
X016120Y025980D03*
X017080Y025980D03*
X017080Y025600D03*
X017080Y025220D03*
D11*
X018100Y025746D03*
X018100Y026454D03*
X019100Y026454D03*
X019100Y025746D03*
X014100Y025954D03*
X014100Y025246D03*
X013100Y025246D03*
X013100Y025954D03*
X025100Y023454D03*
X025100Y022746D03*
X027100Y021954D03*
X027100Y021246D03*
X027100Y024246D03*
X027100Y024954D03*
X030600Y025246D03*
X031600Y025246D03*
X031600Y025954D03*
X030600Y025954D03*
X031600Y023454D03*
X031600Y022746D03*
X031600Y021954D03*
X031600Y021246D03*
X033100Y022746D03*
X033100Y023454D03*
X029100Y010954D03*
X029100Y010246D03*
X030600Y009454D03*
X030600Y008746D03*
X030600Y007954D03*
X030600Y007246D03*
X028600Y005954D03*
X028600Y005246D03*
X027100Y005246D03*
X027100Y005954D03*
X025100Y007746D03*
X025100Y008454D03*
X027100Y010246D03*
X027100Y010954D03*
X016600Y004454D03*
X015600Y004746D03*
X015600Y005454D03*
X016600Y003746D03*
X011100Y004246D03*
X011100Y004954D03*
X010600Y002954D03*
X010600Y002246D03*
X006600Y001954D03*
X006100Y002746D03*
X006100Y003454D03*
X006600Y001246D03*
D12*
X004954Y003600D03*
X004246Y003600D03*
X002454Y005100D03*
X001746Y005100D03*
X004496Y006850D03*
X005204Y006850D03*
X013246Y003600D03*
X013954Y003600D03*
X013996Y004600D03*
X014704Y004600D03*
X024246Y009100D03*
X024954Y009100D03*
X028146Y008500D03*
X028854Y008500D03*
X028746Y006600D03*
X029454Y006600D03*
X029746Y020600D03*
X030454Y020600D03*
X026954Y022600D03*
X026246Y022600D03*
X026246Y023600D03*
X026954Y023600D03*
X021954Y025100D03*
X021246Y025100D03*
X017954Y028100D03*
X017246Y028100D03*
X015454Y026600D03*
X014746Y026600D03*
X016246Y024100D03*
X016954Y024100D03*
D13*
X029210Y023900D03*
X029400Y023900D03*
X029600Y023900D03*
X029800Y023900D03*
X029990Y023900D03*
X029990Y022300D03*
X029800Y022300D03*
X029600Y022300D03*
X029400Y022300D03*
X029210Y022300D03*
X027490Y008900D03*
X027300Y008900D03*
X027100Y008900D03*
X026900Y008900D03*
X026710Y008900D03*
X026710Y007300D03*
X026900Y007300D03*
X027100Y007300D03*
X027300Y007300D03*
X027490Y007300D03*
D14*
X032820Y007420D03*
X033200Y007420D03*
X033580Y007420D03*
X033580Y008380D03*
X032820Y008380D03*
D15*
X009100Y013050D03*
X009100Y014050D03*
X009100Y015050D03*
X003100Y015050D03*
X003100Y014050D03*
X003100Y013050D03*
X003100Y021050D03*
X003100Y022050D03*
X009100Y022050D03*
X009100Y021050D03*
D16*
X007100Y025706D03*
X005250Y026887D03*
X007100Y028069D03*
D17*
X005114Y001974D03*
X005114Y001226D03*
X004086Y001226D03*
X004086Y001600D03*
X004086Y001974D03*
D18*
X013100Y009728D03*
D19*
X013100Y006500D03*
X012431Y006500D03*
X011761Y006500D03*
X013769Y006500D03*
X014439Y006500D03*
D20*
X015265Y003100D03*
X015935Y003100D03*
X008435Y001600D03*
X007765Y001600D03*
D21*
X008100Y005549D03*
X008100Y006651D03*
D22*
X005651Y005100D03*
X004549Y005100D03*
X003151Y004100D03*
X002049Y004100D03*
X013049Y002100D03*
X014151Y002100D03*
D23*
X009929Y009100D03*
X007271Y009100D03*
X004429Y009100D03*
X001771Y009100D03*
D24*
X001600Y006935D03*
X001600Y006265D03*
X009600Y006435D03*
X009600Y005765D03*
D25*
X024100Y013100D03*
X024100Y014100D03*
X026100Y014100D03*
X026100Y013100D03*
X028100Y013100D03*
X028100Y014100D03*
X031600Y013100D03*
X031600Y012100D03*
X036600Y008600D03*
X036600Y005600D03*
X036600Y004600D03*
X027100Y018100D03*
X026100Y018100D03*
X025100Y018100D03*
X025100Y020100D03*
X024100Y020100D03*
X026100Y020100D03*
X023100Y022600D03*
X023100Y023600D03*
X023100Y025100D03*
X024100Y025100D03*
X024100Y028100D03*
X025100Y028100D03*
X020600Y028100D03*
X019600Y028100D03*
X036600Y024600D03*
X036600Y021100D03*
X036600Y020100D03*
D26*
X025100Y016876D03*
X025100Y016364D03*
D27*
X026726Y015706D03*
X027474Y015706D03*
X027100Y016533D03*
D28*
X001850Y001850D03*
X002100Y028100D03*
X036600Y028100D03*
X036600Y002100D03*
M02*
