G75*
%MOIN*%
%OFA0B0*%
%FSLAX24Y24*%
%IPPOS*%
%LPD*%
%AMOC8*
5,1,8,0,0,1.08239X$1,22.5*
%
%ADD10R,0.0500X0.0220*%
%ADD11R,0.0472X0.0315*%
%ADD12R,0.0315X0.0472*%
%ADD13R,0.0098X0.0700*%
%ADD14R,0.0220X0.0500*%
%ADD15R,0.0472X0.0236*%
%ADD16R,0.3346X0.3780*%
%ADD17R,0.0394X0.1339*%
%ADD18R,0.0433X0.0394*%
%ADD19R,0.0709X0.0630*%
%ADD20R,0.0630X0.0709*%
%ADD21R,0.1161X0.1732*%
%ADD22R,0.0394X0.0433*%
%ADD23R,0.0197X0.0276*%
%ADD24R,0.0315X0.0354*%
D10*
X016120Y025220D03*
X016120Y025980D03*
X017080Y025980D03*
X017080Y025600D03*
X017080Y025220D03*
D11*
X018100Y025746D03*
X018100Y026454D03*
X019100Y026454D03*
X019100Y025746D03*
X014100Y025954D03*
X014100Y025246D03*
X013100Y025246D03*
X013100Y025954D03*
X025100Y023454D03*
X025100Y022746D03*
X027100Y021954D03*
X027100Y021246D03*
X027100Y024246D03*
X027100Y024954D03*
X030600Y025246D03*
X031600Y025246D03*
X031600Y025954D03*
X030600Y025954D03*
X031600Y023454D03*
X031600Y022746D03*
X031600Y021954D03*
X031600Y021246D03*
X033100Y022746D03*
X033100Y023454D03*
X029100Y010954D03*
X029100Y010246D03*
X030600Y009454D03*
X030600Y008746D03*
X030600Y007954D03*
X030600Y007246D03*
X028600Y005954D03*
X028600Y005246D03*
X027100Y005246D03*
X027100Y005954D03*
X025100Y007746D03*
X025100Y008454D03*
X027100Y010246D03*
X027100Y010954D03*
X016600Y004454D03*
X015600Y004746D03*
X015600Y005454D03*
X016600Y003746D03*
X011100Y004246D03*
X011100Y004954D03*
X010600Y002954D03*
X010600Y002246D03*
X006600Y001954D03*
X006100Y002746D03*
X006100Y003454D03*
X006600Y001246D03*
D12*
X004954Y003600D03*
X004246Y003600D03*
X002454Y005100D03*
X001746Y005100D03*
X004496Y006850D03*
X005204Y006850D03*
X013246Y003600D03*
X013954Y003600D03*
X013996Y004600D03*
X014704Y004600D03*
X024246Y009100D03*
X024954Y009100D03*
X028146Y008500D03*
X028854Y008500D03*
X028746Y006600D03*
X029454Y006600D03*
X029746Y020600D03*
X030454Y020600D03*
X026954Y022600D03*
X026246Y022600D03*
X026246Y023600D03*
X026954Y023600D03*
X021954Y025100D03*
X021246Y025100D03*
X017954Y028100D03*
X017246Y028100D03*
X015454Y026600D03*
X014746Y026600D03*
X016246Y024100D03*
X016954Y024100D03*
D13*
X029210Y023900D03*
X029400Y023900D03*
X029600Y023900D03*
X029800Y023900D03*
X029990Y023900D03*
X029990Y022300D03*
X029800Y022300D03*
X029600Y022300D03*
X029400Y022300D03*
X029210Y022300D03*
X027490Y008900D03*
X027300Y008900D03*
X027100Y008900D03*
X026900Y008900D03*
X026710Y008900D03*
X026710Y007300D03*
X026900Y007300D03*
X027100Y007300D03*
X027300Y007300D03*
X027490Y007300D03*
D14*
X032820Y007420D03*
X033200Y007420D03*
X033580Y007420D03*
X033580Y008380D03*
X032820Y008380D03*
D15*
X004086Y001226D03*
X004086Y001600D03*
X004086Y001974D03*
X005114Y001974D03*
X005114Y001226D03*
D16*
X013100Y009728D03*
D17*
X013100Y006500D03*
X012431Y006500D03*
X011761Y006500D03*
X013769Y006500D03*
X014439Y006500D03*
D18*
X015265Y003100D03*
X015935Y003100D03*
X008435Y001600D03*
X007765Y001600D03*
D19*
X008100Y005549D03*
X008100Y006651D03*
D20*
X005651Y005100D03*
X004549Y005100D03*
X003151Y004100D03*
X002049Y004100D03*
X013049Y002100D03*
X014151Y002100D03*
D21*
X009929Y009100D03*
X007271Y009100D03*
X004429Y009100D03*
X001771Y009100D03*
D22*
X001600Y006935D03*
X001600Y006265D03*
X009600Y006435D03*
X009600Y005765D03*
D23*
X025100Y016364D03*
X025100Y016876D03*
D24*
X026726Y015706D03*
X027474Y015706D03*
X027100Y016533D03*
M02*
