G75*
%MOIN*%
%OFA0B0*%
%FSLAX24Y24*%
%IPPOS*%
%LPD*%
%AMOC8*
5,1,8,0,0,1.08239X$1,22.5*
%
%ADD10C,0.0000*%
%ADD11R,0.0500X0.0220*%
%ADD12R,0.0472X0.0315*%
%ADD13R,0.0315X0.0472*%
%ADD14R,0.0098X0.0700*%
%ADD15R,0.0220X0.0500*%
%ADD16R,0.0594X0.0594*%
%ADD17C,0.1700*%
%ADD18R,0.0472X0.0236*%
%ADD19R,0.3346X0.3780*%
%ADD20R,0.0394X0.1339*%
%ADD21R,0.0433X0.0394*%
%ADD22R,0.0709X0.0630*%
%ADD23R,0.0630X0.0709*%
%ADD24R,0.1161X0.1732*%
%ADD25R,0.0394X0.0433*%
%ADD26C,0.0740*%
%ADD27R,0.0197X0.0276*%
%ADD28R,0.0315X0.0354*%
%ADD29C,0.0500*%
%ADD30C,0.0240*%
%ADD31C,0.0320*%
%ADD32C,0.0436*%
%ADD33C,0.0100*%
%ADD34C,0.0160*%
%ADD35C,0.0120*%
%ADD36C,0.0400*%
D10*
X000100Y000100D02*
X000100Y029970D01*
X038592Y029970D01*
X038592Y000100D01*
X000100Y000100D01*
X001200Y001850D02*
X001202Y001900D01*
X001208Y001950D01*
X001218Y002000D01*
X001231Y002048D01*
X001248Y002096D01*
X001269Y002142D01*
X001293Y002186D01*
X001321Y002228D01*
X001352Y002268D01*
X001386Y002305D01*
X001423Y002340D01*
X001462Y002371D01*
X001503Y002400D01*
X001547Y002425D01*
X001593Y002447D01*
X001640Y002465D01*
X001688Y002479D01*
X001737Y002490D01*
X001787Y002497D01*
X001837Y002500D01*
X001888Y002499D01*
X001938Y002494D01*
X001988Y002485D01*
X002036Y002473D01*
X002084Y002456D01*
X002130Y002436D01*
X002175Y002413D01*
X002218Y002386D01*
X002258Y002356D01*
X002296Y002323D01*
X002331Y002287D01*
X002364Y002248D01*
X002393Y002207D01*
X002419Y002164D01*
X002442Y002119D01*
X002461Y002072D01*
X002476Y002024D01*
X002488Y001975D01*
X002496Y001925D01*
X002500Y001875D01*
X002500Y001825D01*
X002496Y001775D01*
X002488Y001725D01*
X002476Y001676D01*
X002461Y001628D01*
X002442Y001581D01*
X002419Y001536D01*
X002393Y001493D01*
X002364Y001452D01*
X002331Y001413D01*
X002296Y001377D01*
X002258Y001344D01*
X002218Y001314D01*
X002175Y001287D01*
X002130Y001264D01*
X002084Y001244D01*
X002036Y001227D01*
X001988Y001215D01*
X001938Y001206D01*
X001888Y001201D01*
X001837Y001200D01*
X001787Y001203D01*
X001737Y001210D01*
X001688Y001221D01*
X001640Y001235D01*
X001593Y001253D01*
X001547Y001275D01*
X001503Y001300D01*
X001462Y001329D01*
X001423Y001360D01*
X001386Y001395D01*
X001352Y001432D01*
X001321Y001472D01*
X001293Y001514D01*
X001269Y001558D01*
X001248Y001604D01*
X001231Y001652D01*
X001218Y001700D01*
X001208Y001750D01*
X001202Y001800D01*
X001200Y001850D01*
X001450Y028100D02*
X001452Y028150D01*
X001458Y028200D01*
X001468Y028250D01*
X001481Y028298D01*
X001498Y028346D01*
X001519Y028392D01*
X001543Y028436D01*
X001571Y028478D01*
X001602Y028518D01*
X001636Y028555D01*
X001673Y028590D01*
X001712Y028621D01*
X001753Y028650D01*
X001797Y028675D01*
X001843Y028697D01*
X001890Y028715D01*
X001938Y028729D01*
X001987Y028740D01*
X002037Y028747D01*
X002087Y028750D01*
X002138Y028749D01*
X002188Y028744D01*
X002238Y028735D01*
X002286Y028723D01*
X002334Y028706D01*
X002380Y028686D01*
X002425Y028663D01*
X002468Y028636D01*
X002508Y028606D01*
X002546Y028573D01*
X002581Y028537D01*
X002614Y028498D01*
X002643Y028457D01*
X002669Y028414D01*
X002692Y028369D01*
X002711Y028322D01*
X002726Y028274D01*
X002738Y028225D01*
X002746Y028175D01*
X002750Y028125D01*
X002750Y028075D01*
X002746Y028025D01*
X002738Y027975D01*
X002726Y027926D01*
X002711Y027878D01*
X002692Y027831D01*
X002669Y027786D01*
X002643Y027743D01*
X002614Y027702D01*
X002581Y027663D01*
X002546Y027627D01*
X002508Y027594D01*
X002468Y027564D01*
X002425Y027537D01*
X002380Y027514D01*
X002334Y027494D01*
X002286Y027477D01*
X002238Y027465D01*
X002188Y027456D01*
X002138Y027451D01*
X002087Y027450D01*
X002037Y027453D01*
X001987Y027460D01*
X001938Y027471D01*
X001890Y027485D01*
X001843Y027503D01*
X001797Y027525D01*
X001753Y027550D01*
X001712Y027579D01*
X001673Y027610D01*
X001636Y027645D01*
X001602Y027682D01*
X001571Y027722D01*
X001543Y027764D01*
X001519Y027808D01*
X001498Y027854D01*
X001481Y027902D01*
X001468Y027950D01*
X001458Y028000D01*
X001452Y028050D01*
X001450Y028100D01*
X035950Y028100D02*
X035952Y028150D01*
X035958Y028200D01*
X035968Y028250D01*
X035981Y028298D01*
X035998Y028346D01*
X036019Y028392D01*
X036043Y028436D01*
X036071Y028478D01*
X036102Y028518D01*
X036136Y028555D01*
X036173Y028590D01*
X036212Y028621D01*
X036253Y028650D01*
X036297Y028675D01*
X036343Y028697D01*
X036390Y028715D01*
X036438Y028729D01*
X036487Y028740D01*
X036537Y028747D01*
X036587Y028750D01*
X036638Y028749D01*
X036688Y028744D01*
X036738Y028735D01*
X036786Y028723D01*
X036834Y028706D01*
X036880Y028686D01*
X036925Y028663D01*
X036968Y028636D01*
X037008Y028606D01*
X037046Y028573D01*
X037081Y028537D01*
X037114Y028498D01*
X037143Y028457D01*
X037169Y028414D01*
X037192Y028369D01*
X037211Y028322D01*
X037226Y028274D01*
X037238Y028225D01*
X037246Y028175D01*
X037250Y028125D01*
X037250Y028075D01*
X037246Y028025D01*
X037238Y027975D01*
X037226Y027926D01*
X037211Y027878D01*
X037192Y027831D01*
X037169Y027786D01*
X037143Y027743D01*
X037114Y027702D01*
X037081Y027663D01*
X037046Y027627D01*
X037008Y027594D01*
X036968Y027564D01*
X036925Y027537D01*
X036880Y027514D01*
X036834Y027494D01*
X036786Y027477D01*
X036738Y027465D01*
X036688Y027456D01*
X036638Y027451D01*
X036587Y027450D01*
X036537Y027453D01*
X036487Y027460D01*
X036438Y027471D01*
X036390Y027485D01*
X036343Y027503D01*
X036297Y027525D01*
X036253Y027550D01*
X036212Y027579D01*
X036173Y027610D01*
X036136Y027645D01*
X036102Y027682D01*
X036071Y027722D01*
X036043Y027764D01*
X036019Y027808D01*
X035998Y027854D01*
X035981Y027902D01*
X035968Y027950D01*
X035958Y028000D01*
X035952Y028050D01*
X035950Y028100D01*
X035950Y002100D02*
X035952Y002150D01*
X035958Y002200D01*
X035968Y002250D01*
X035981Y002298D01*
X035998Y002346D01*
X036019Y002392D01*
X036043Y002436D01*
X036071Y002478D01*
X036102Y002518D01*
X036136Y002555D01*
X036173Y002590D01*
X036212Y002621D01*
X036253Y002650D01*
X036297Y002675D01*
X036343Y002697D01*
X036390Y002715D01*
X036438Y002729D01*
X036487Y002740D01*
X036537Y002747D01*
X036587Y002750D01*
X036638Y002749D01*
X036688Y002744D01*
X036738Y002735D01*
X036786Y002723D01*
X036834Y002706D01*
X036880Y002686D01*
X036925Y002663D01*
X036968Y002636D01*
X037008Y002606D01*
X037046Y002573D01*
X037081Y002537D01*
X037114Y002498D01*
X037143Y002457D01*
X037169Y002414D01*
X037192Y002369D01*
X037211Y002322D01*
X037226Y002274D01*
X037238Y002225D01*
X037246Y002175D01*
X037250Y002125D01*
X037250Y002075D01*
X037246Y002025D01*
X037238Y001975D01*
X037226Y001926D01*
X037211Y001878D01*
X037192Y001831D01*
X037169Y001786D01*
X037143Y001743D01*
X037114Y001702D01*
X037081Y001663D01*
X037046Y001627D01*
X037008Y001594D01*
X036968Y001564D01*
X036925Y001537D01*
X036880Y001514D01*
X036834Y001494D01*
X036786Y001477D01*
X036738Y001465D01*
X036688Y001456D01*
X036638Y001451D01*
X036587Y001450D01*
X036537Y001453D01*
X036487Y001460D01*
X036438Y001471D01*
X036390Y001485D01*
X036343Y001503D01*
X036297Y001525D01*
X036253Y001550D01*
X036212Y001579D01*
X036173Y001610D01*
X036136Y001645D01*
X036102Y001682D01*
X036071Y001722D01*
X036043Y001764D01*
X036019Y001808D01*
X035998Y001854D01*
X035981Y001902D01*
X035968Y001950D01*
X035958Y002000D01*
X035952Y002050D01*
X035950Y002100D01*
D11*
X017080Y025220D03*
X017080Y025600D03*
X017080Y025980D03*
X016120Y025980D03*
X016120Y025220D03*
D12*
X014100Y025246D03*
X014100Y025954D03*
X013100Y025954D03*
X013100Y025246D03*
X018100Y025746D03*
X018100Y026454D03*
X019100Y026454D03*
X019100Y025746D03*
X025100Y023454D03*
X025100Y022746D03*
X027100Y021954D03*
X027100Y021246D03*
X027100Y024246D03*
X027100Y024954D03*
X030600Y025246D03*
X031600Y025246D03*
X031600Y025954D03*
X030600Y025954D03*
X031600Y023454D03*
X031600Y022746D03*
X031600Y021954D03*
X031600Y021246D03*
X033100Y022746D03*
X033100Y023454D03*
X029100Y010954D03*
X029100Y010246D03*
X030600Y009454D03*
X030600Y008746D03*
X030600Y007954D03*
X030600Y007246D03*
X028600Y005954D03*
X028600Y005246D03*
X027100Y005246D03*
X027100Y005954D03*
X025100Y007746D03*
X025100Y008454D03*
X027100Y010246D03*
X027100Y010954D03*
X016600Y004454D03*
X015600Y004746D03*
X015600Y005454D03*
X016600Y003746D03*
X011100Y004246D03*
X011100Y004954D03*
X010600Y002954D03*
X010600Y002246D03*
X006600Y001954D03*
X006100Y002746D03*
X006100Y003454D03*
X006600Y001246D03*
D13*
X004954Y003600D03*
X004246Y003600D03*
X002454Y005100D03*
X001746Y005100D03*
X004496Y006850D03*
X005204Y006850D03*
X013246Y003600D03*
X013954Y003600D03*
X013996Y004600D03*
X014704Y004600D03*
X024246Y009100D03*
X024954Y009100D03*
X028146Y008500D03*
X028854Y008500D03*
X028746Y006600D03*
X029454Y006600D03*
X029746Y020600D03*
X030454Y020600D03*
X026954Y022600D03*
X026246Y022600D03*
X026246Y023600D03*
X026954Y023600D03*
X021954Y025100D03*
X021246Y025100D03*
X017954Y028100D03*
X017246Y028100D03*
X015454Y026600D03*
X014746Y026600D03*
X016246Y024100D03*
X016954Y024100D03*
D14*
X029210Y023900D03*
X029400Y023900D03*
X029600Y023900D03*
X029800Y023900D03*
X029990Y023900D03*
X029990Y022300D03*
X029800Y022300D03*
X029600Y022300D03*
X029400Y022300D03*
X029210Y022300D03*
X027490Y008900D03*
X027300Y008900D03*
X027100Y008900D03*
X026900Y008900D03*
X026710Y008900D03*
X026710Y007300D03*
X026900Y007300D03*
X027100Y007300D03*
X027300Y007300D03*
X027490Y007300D03*
D15*
X032820Y007420D03*
X033200Y007420D03*
X033580Y007420D03*
X033580Y008380D03*
X032820Y008380D03*
D16*
X009100Y013050D03*
X009100Y014050D03*
X009100Y015050D03*
X003100Y015050D03*
X003100Y014050D03*
X003100Y013050D03*
X003100Y021050D03*
X003100Y022050D03*
X009100Y022050D03*
X009100Y021050D03*
D17*
X007100Y025706D03*
X005250Y026887D03*
X007100Y028069D03*
D18*
X005114Y001974D03*
X005114Y001226D03*
X004086Y001226D03*
X004086Y001600D03*
X004086Y001974D03*
D19*
X013100Y009728D03*
D20*
X013100Y006500D03*
X012431Y006500D03*
X011761Y006500D03*
X013769Y006500D03*
X014439Y006500D03*
D21*
X015265Y003100D03*
X015935Y003100D03*
X008435Y001600D03*
X007765Y001600D03*
D22*
X008100Y005549D03*
X008100Y006651D03*
D23*
X005651Y005100D03*
X004549Y005100D03*
X003151Y004100D03*
X002049Y004100D03*
X013049Y002100D03*
X014151Y002100D03*
D24*
X009929Y009100D03*
X007271Y009100D03*
X004429Y009100D03*
X001771Y009100D03*
D25*
X001600Y006935D03*
X001600Y006265D03*
X009600Y006435D03*
X009600Y005765D03*
D26*
X024100Y013100D03*
X024100Y014100D03*
X026100Y014100D03*
X026100Y013100D03*
X028100Y013100D03*
X028100Y014100D03*
X031600Y013100D03*
X031600Y012100D03*
X036600Y008600D03*
X036600Y005600D03*
X036600Y004600D03*
X027100Y018100D03*
X026100Y018100D03*
X025100Y018100D03*
X025100Y020100D03*
X024100Y020100D03*
X026100Y020100D03*
X023100Y022600D03*
X023100Y023600D03*
X023100Y025100D03*
X024100Y025100D03*
X024100Y028100D03*
X025100Y028100D03*
X020600Y028100D03*
X019600Y028100D03*
X036600Y024600D03*
X036600Y021100D03*
X036600Y020100D03*
D27*
X025100Y016876D03*
X025100Y016364D03*
D28*
X026726Y015706D03*
X027474Y015706D03*
X027100Y016533D03*
D29*
X013100Y012100D02*
X013100Y009728D01*
X007271Y009100D02*
X005600Y009100D01*
X004600Y009100D01*
X003100Y021050D02*
X003100Y022050D01*
X003100Y027000D01*
X003213Y026887D01*
X005250Y026887D01*
X003100Y027000D02*
X003100Y027100D01*
X005100Y029100D01*
X007069Y029069D01*
X007100Y028069D01*
X007100Y025706D02*
X009100Y025706D01*
X009100Y022050D01*
X009100Y021050D01*
D30*
X012454Y025246D02*
X012100Y025600D01*
X012454Y025246D02*
X013100Y025246D01*
X014100Y025246D01*
X016094Y025246D01*
X016120Y025220D01*
X017080Y025220D02*
X017200Y025100D01*
X021100Y025100D01*
X021246Y025100D01*
X021100Y025100D02*
X021100Y027600D01*
X021098Y027644D01*
X021092Y027687D01*
X021083Y027729D01*
X021070Y027771D01*
X021053Y027811D01*
X021033Y027850D01*
X021010Y027887D01*
X020983Y027921D01*
X020954Y027954D01*
X020921Y027983D01*
X020887Y028010D01*
X020850Y028033D01*
X020811Y028053D01*
X020771Y028070D01*
X020729Y028083D01*
X020687Y028092D01*
X020644Y028098D01*
X020600Y028100D01*
X019600Y028100D02*
X017954Y028100D01*
X017246Y028100D02*
X017080Y027474D01*
X017080Y025980D01*
X017080Y025600D02*
X018100Y025600D01*
X018100Y025746D01*
X019100Y025746D01*
X019746Y025746D01*
X020100Y026100D01*
X019100Y026454D02*
X019100Y026600D01*
X018600Y027100D01*
X018600Y026954D01*
X018100Y026454D01*
X017200Y025100D02*
X017100Y025100D01*
X016954Y024100D01*
X014100Y025954D02*
X014100Y026100D01*
X013600Y026600D01*
X013100Y026100D01*
X013100Y025954D01*
X013600Y026600D02*
X014746Y026600D01*
X021954Y025100D02*
X023100Y025100D01*
X024100Y025100D02*
X025100Y024100D01*
X025100Y023454D01*
X026100Y023454D01*
X026246Y023600D01*
X026954Y023600D02*
X026954Y024100D01*
X027100Y024246D01*
X027100Y024954D02*
X027100Y025300D01*
X027700Y025900D01*
X029400Y025900D01*
X030454Y025954D01*
X030600Y025954D01*
X031600Y025954D01*
X031600Y025246D02*
X032954Y025246D01*
X033100Y025100D01*
X033100Y022746D02*
X033100Y022600D01*
X032600Y022100D01*
X032454Y021954D01*
X031600Y021954D01*
X031600Y022746D02*
X031954Y022746D01*
X032600Y022100D01*
X030454Y020600D02*
X030454Y020246D01*
X030600Y020100D01*
X036600Y020100D01*
X029746Y020600D02*
X029000Y020600D01*
X028400Y021200D01*
X028400Y021246D01*
X027100Y021246D01*
X027100Y021954D02*
X026954Y022100D01*
X026954Y022600D01*
X026246Y022600D02*
X026100Y022746D01*
X025100Y022746D01*
X024954Y022600D01*
X024954Y020246D01*
X025100Y020100D01*
X024100Y020100D02*
X024100Y014100D01*
X024100Y013100D02*
X024100Y009246D01*
X024246Y009100D01*
X025100Y007746D02*
X025454Y007746D01*
X026100Y007100D01*
X026100Y005600D01*
X026454Y005246D01*
X027100Y005246D01*
X028600Y005246D01*
X030454Y007246D02*
X029600Y008100D01*
X029500Y008000D01*
X028854Y008500D01*
X030454Y007246D02*
X030600Y007246D01*
X032820Y008380D02*
X030600Y010600D01*
X030100Y010600D01*
X029746Y010246D01*
X029100Y010246D01*
X029100Y010954D02*
X028454Y011300D01*
X028300Y011400D01*
X027454Y010954D01*
X027100Y010954D01*
X026100Y013100D02*
X028100Y013100D01*
X031600Y013100D01*
X028100Y014100D02*
X027474Y014726D01*
X027474Y015706D01*
X026726Y015706D02*
X026726Y015226D01*
X026100Y015100D01*
X025100Y015100D02*
X026100Y014100D01*
X026100Y013100D02*
X024100Y013100D01*
X025100Y015100D02*
X025100Y016364D01*
X025100Y016876D02*
X025100Y018100D01*
X026100Y018100D02*
X026100Y020100D01*
X027100Y018100D02*
X027100Y016533D01*
X024954Y022600D02*
X023100Y022600D01*
X023100Y023600D02*
X024954Y023600D01*
X025100Y023454D01*
X025100Y024100D02*
X025100Y028100D01*
X033200Y007420D02*
X033200Y006600D01*
X017100Y003100D02*
X016600Y003100D01*
X016600Y003746D01*
X016600Y003100D02*
X015935Y003100D01*
X016600Y004454D02*
X016600Y005600D01*
X016100Y006100D01*
X016100Y005954D01*
X015600Y005454D01*
X015600Y004746D02*
X014850Y004746D01*
X014850Y005850D01*
X014439Y006261D01*
X014439Y006500D01*
X014850Y004746D02*
X014704Y004600D01*
X012431Y006500D02*
X011761Y006500D01*
X010600Y002246D02*
X010600Y001600D01*
X011100Y001600D01*
X010600Y001600D02*
X008435Y001600D01*
D31*
X007765Y001600D02*
X007600Y001600D01*
X007100Y002100D01*
X006954Y001954D01*
X006600Y001954D01*
X007100Y002100D02*
X007100Y003651D01*
X005651Y005100D01*
X005651Y006403D01*
X005204Y006850D01*
X004496Y006850D02*
X004100Y006454D01*
X004100Y005100D01*
X003600Y005100D01*
X003151Y004100D01*
X004246Y003600D01*
X004100Y005100D02*
X004549Y005100D01*
X003600Y005100D02*
X002454Y005100D01*
X001746Y005100D02*
X001600Y005100D01*
X001600Y004100D01*
X002049Y004100D01*
X001600Y005100D02*
X001600Y006265D01*
X001600Y006935D02*
X001600Y009100D01*
X001771Y009100D01*
X004429Y009100D02*
X004600Y009100D01*
X004496Y008996D01*
X007271Y009100D02*
X007271Y007480D01*
X008100Y006651D01*
X008151Y005600D02*
X008100Y005549D01*
X008151Y005600D02*
X009600Y005600D01*
X011100Y005600D01*
X011761Y006261D01*
X011761Y006500D01*
X011100Y005600D02*
X010954Y005454D01*
X011100Y004954D01*
X012100Y004100D02*
X013100Y005100D01*
X013100Y006500D01*
X013769Y006500D02*
X013850Y006419D01*
X013850Y004850D01*
X013996Y004704D01*
X013996Y004600D01*
X013954Y004559D01*
X013954Y003600D01*
X014454Y003100D01*
X015265Y003100D01*
X015151Y003100D01*
X014151Y002100D01*
X012100Y004049D02*
X012100Y004100D01*
X009600Y005600D02*
X009600Y005765D01*
X009600Y006435D02*
X009600Y008771D01*
X009929Y009100D01*
D32*
X013100Y012100D03*
X016100Y006100D03*
X017100Y003100D03*
X012100Y004100D03*
X011100Y001600D03*
X003600Y005100D03*
X005600Y009100D03*
X012100Y025600D03*
X013600Y026600D03*
X018600Y027100D03*
X020100Y026100D03*
X028400Y021200D03*
X032600Y022100D03*
X034600Y023100D03*
X033100Y025100D03*
X029400Y025900D03*
X026100Y015100D03*
X028300Y011400D03*
X030100Y010600D03*
X029600Y008100D03*
X029600Y005100D03*
X030600Y005100D03*
X033200Y006600D03*
X026100Y007100D03*
D33*
X026710Y007300D02*
X026900Y007300D01*
X026900Y008900D01*
X026710Y008900D02*
X026510Y009100D01*
X025600Y009100D01*
X025100Y008454D01*
X024954Y009100D02*
X025600Y009100D01*
X027100Y008900D02*
X027100Y010246D01*
X029100Y010246D01*
X030454Y009600D02*
X030600Y009454D01*
X030454Y009600D02*
X027600Y009600D01*
X027300Y009300D01*
X027300Y008900D01*
X027490Y008900D02*
X027490Y008490D01*
X027100Y008100D01*
X027100Y007300D01*
X027100Y005954D01*
X027600Y006600D02*
X028746Y006600D01*
X027600Y006600D02*
X027490Y006710D01*
X027490Y007300D01*
X027300Y007300D02*
X027300Y007800D01*
X027600Y008100D01*
X028146Y008500D01*
X030454Y020600D02*
X030446Y021054D01*
X029800Y021400D01*
X029800Y022300D01*
X029990Y022300D02*
X030000Y022300D01*
X031100Y021200D01*
X031554Y021200D01*
X029600Y022300D02*
X029600Y023100D01*
X029954Y023454D01*
X029990Y023454D02*
X029990Y023900D01*
X029800Y023900D02*
X029800Y024300D01*
X030100Y024600D01*
X036600Y024600D01*
X031600Y023454D02*
X029990Y023454D01*
X029600Y023900D02*
X029600Y024600D01*
X030246Y025246D01*
X030600Y025246D01*
X029400Y025900D02*
X029400Y023900D01*
X029210Y023900D02*
X028864Y024246D01*
X027100Y024246D01*
X026954Y022600D02*
X028910Y022600D01*
X029210Y022300D01*
X029400Y022300D02*
X029400Y021246D01*
X028400Y021246D01*
D34*
X031600Y023454D02*
X033100Y023454D01*
X034246Y023454D01*
X034600Y023100D01*
X031600Y025246D02*
X030600Y025246D01*
X016600Y025500D02*
X016600Y024600D01*
X016100Y024600D01*
X016100Y024246D01*
X016246Y024100D01*
X016600Y025500D02*
X016120Y025980D01*
X015500Y026600D01*
X015454Y026600D01*
X026300Y007300D02*
X026100Y007100D01*
X026300Y007300D02*
X026710Y007300D01*
X029600Y006600D02*
X030600Y005100D01*
X006600Y001974D02*
X006600Y001954D01*
X006600Y001974D02*
X006100Y001974D01*
X006100Y002746D01*
X006100Y003454D02*
X006100Y003600D01*
X004954Y003600D01*
X004954Y002600D01*
X004600Y002600D01*
X004600Y001226D01*
X005114Y001226D01*
X005114Y001974D02*
X006100Y001974D01*
X006600Y001246D02*
X006600Y000600D01*
X004100Y000600D01*
X004100Y001226D01*
X004086Y001226D01*
X004086Y001600D02*
X003600Y001600D01*
X003100Y002100D01*
X003100Y002600D01*
X002049Y003651D01*
X002049Y004100D01*
X004086Y003640D02*
X004086Y001974D01*
D35*
X004246Y003600D02*
X004086Y003640D01*
X010400Y003655D02*
X013300Y003655D01*
X013300Y003537D02*
X010400Y003537D01*
X010400Y003418D02*
X013300Y003418D01*
X013300Y003300D02*
X010400Y003300D01*
X010400Y003181D02*
X013300Y003181D01*
X013300Y003063D02*
X010400Y003063D01*
X010400Y003000D02*
X010400Y003900D01*
X010600Y004100D01*
X010700Y004100D01*
X010900Y004300D01*
X011500Y004300D01*
X012500Y005300D01*
X013200Y005300D01*
X013300Y005200D01*
X013300Y002600D01*
X013200Y002500D01*
X013200Y001700D01*
X013100Y001600D01*
X012500Y001600D01*
X011300Y002800D01*
X010600Y002800D01*
X010400Y003000D01*
X010456Y002944D02*
X013300Y002944D01*
X013300Y002826D02*
X010574Y002826D01*
X011393Y002707D02*
X013300Y002707D01*
X013289Y002589D02*
X011511Y002589D01*
X011630Y002470D02*
X013200Y002470D01*
X013200Y002352D02*
X011748Y002352D01*
X011867Y002233D02*
X013200Y002233D01*
X013200Y002115D02*
X011985Y002115D01*
X012104Y001996D02*
X013200Y001996D01*
X013200Y001878D02*
X012222Y001878D01*
X012341Y001759D02*
X013200Y001759D01*
X013141Y001641D02*
X012459Y001641D01*
X013300Y003774D02*
X010400Y003774D01*
X010400Y003892D02*
X013300Y003892D01*
X013300Y004011D02*
X010511Y004011D01*
X010729Y004129D02*
X013300Y004129D01*
X013300Y004248D02*
X010848Y004248D01*
X011566Y004366D02*
X013300Y004366D01*
X013300Y004485D02*
X011685Y004485D01*
X011803Y004603D02*
X013300Y004603D01*
X013300Y004722D02*
X011922Y004722D01*
X012040Y004840D02*
X013300Y004840D01*
X013300Y004959D02*
X012159Y004959D01*
X012277Y005077D02*
X013300Y005077D01*
X013300Y005196D02*
X012396Y005196D01*
X027100Y005954D02*
X028600Y005954D01*
X029246Y005954D01*
X029600Y005100D01*
X029600Y006600D02*
X029454Y006600D01*
X029600Y007100D02*
X029100Y007100D01*
X028746Y006746D01*
X028746Y006600D01*
X029600Y007100D02*
X032100Y004600D01*
X036600Y004600D01*
X036400Y005400D02*
X036600Y005600D01*
X036400Y005400D02*
X031700Y005400D01*
X029700Y007400D01*
X028800Y007400D01*
X028146Y008054D01*
X028146Y008500D01*
X030600Y008746D02*
X030600Y007954D01*
X033246Y007954D01*
X033600Y007600D01*
X033600Y007440D01*
X033580Y007420D01*
X032820Y007420D02*
X032787Y007418D01*
X032753Y007413D01*
X032721Y007404D01*
X032690Y007392D01*
X032660Y007377D01*
X032632Y007359D01*
X032606Y007338D01*
X032582Y007314D01*
X032561Y007288D01*
X032543Y007260D01*
X032528Y007230D01*
X032516Y007199D01*
X032507Y007167D01*
X032502Y007133D01*
X032500Y007100D01*
X032500Y006300D01*
X032502Y006261D01*
X032508Y006222D01*
X032517Y006184D01*
X032530Y006147D01*
X032547Y006111D01*
X032567Y006078D01*
X032591Y006046D01*
X032617Y006017D01*
X032646Y005991D01*
X032678Y005967D01*
X032711Y005947D01*
X032747Y005930D01*
X032784Y005917D01*
X032822Y005908D01*
X032861Y005902D01*
X032900Y005900D01*
X033900Y005900D01*
X033900Y008400D01*
X036600Y008400D01*
X036600Y008600D01*
X033900Y008400D02*
X033580Y008400D01*
X033580Y008380D01*
X036600Y021100D02*
X036454Y021246D01*
X031600Y021246D01*
X031554Y021200D01*
X029990Y023454D02*
X029954Y023454D01*
D36*
X009929Y013050D02*
X009929Y009100D01*
X009929Y013050D02*
X009100Y013050D01*
X003100Y013050D02*
X001771Y013050D01*
X001771Y009100D01*
M02*
